<svg xmlns="http://www.w3.org/2000/svg" viewBox="0 0 48 48"><path fill="#2196F3" d="M42,37c0,2.762-2.238,5-5,5H11c-2.761,0-5-2.238-5-5V11c0-2.762,2.239-5,5-5h26c2.762,0,5,2.238,5,5V37z"/><path fill="#FFFFFF" d="M24,10c-7.732,0-14,6.268-14,14s6.268,14,14,14s14-6.268,14-14S31.732,10,24,10z M24,34c-5.523,0-10-4.477-10-10s4.477-10,10-10s10,4.477,10,10S29.523,34,24,34z"/><path fill="#FFFFFF" d="M27,20h-6c-0.552,0-1,0.448-1,1v6c0,0.552,0.448,1,1,1h6c0.552,0,1-0.448,1-1v-6C28,20.448,27.552,20,27,20z"/></svg>